<svg xmlns="http://www.w3.org/2000/svg" width="307" height="47" viewBox="0 0 307 47">
  <g>
    <g>
      <rect x="0.06" y="18.04" width="289.43" height="6.61" fill="#fff"/>
      <g>
        <g>
          <path d="M12.9,1.3c3.6,0,5.81,2.15,5.81,5.45a4.4,4.4,0,0,1-3.3,4.54v.09a4.74,4.74,0,0,1,4.09,5,5.78,5.78,0,0,1-5.69,6.08H.06V1.3Zm3.15,6.3V6.42c0-1.94-1.3-2.91-3.42-2.91H2.6v7h10C14.75,10.47,16.05,9.53,16.05,7.6ZM16.81,17V15.77c0-2.12-1.43-3.21-3.76-3.21H2.6v7.66H13.05C15.38,20.22,16.81,19.16,16.81,17Z"/>
          <path d="M21.44,14.65c0-5,2.93-8.2,7.17-8.2s6.93,3.2,6.93,7.62v1.15H24V16a4.52,4.52,0,0,0,4.78,4.75A4.74,4.74,0,0,0,33.24,18L35,19.19a6.54,6.54,0,0,1-6.26,3.6C24.28,22.79,21.44,19.58,21.44,14.65ZM24,13.19v.22h9v-.34c0-2.75-1.76-4.63-4.33-4.63A4.57,4.57,0,0,0,24,13.19Z"/>
          <path d="M51.7,6.81,44,25.84c-.73,1.79-1.63,2.64-4,2.64H34.78V26.42h6.51L43,22.12,36.75,6.81h2.48l2.63,6.54,2.33,5.93h.12l2.33-5.93,2.64-6.54Z"/>
          <path d="M52.88,14.62c0-5,2.69-8.17,7.08-8.17S67,9.65,67,14.62,64.35,22.79,60,22.79,52.88,19.58,52.88,14.62Zm11.59,1.12V13.5c0-3.36-1.82-5-4.51-5s-4.51,1.61-4.51,5v2.24c0,3.36,1.82,5,4.51,5S64.47,19.1,64.47,15.74Z"/>
          <path d="M70.19,6.81h2.42V9.35h.12a4.43,4.43,0,0,1,4.45-2.9c3.27,0,5.41,2.18,5.41,6v10H80.17V12.83c0-2.84-1.3-4.23-3.69-4.23-1.93,0-3.87.93-3.87,3V22.42H70.19Z"/>
          <path d="M96.91,19.88a5.11,5.11,0,0,1-4.81,2.91c-3.82,0-6.12-3.06-6.12-8.17s2.3-8.17,6.12-8.17a5.12,5.12,0,0,1,4.81,2.9H97V0h2.42V22.42H97V19.88ZM97,17.43V11.8c0-2.09-1.85-3.2-4-3.2-2.81,0-4.44,1.87-4.44,4.69V16c0,2.81,1.63,4.69,4.44,4.69C95.18,20.64,97,19.52,97,17.43Z"/>
          <path d="M111.34,18.85v-10h-5.21V6.81H110c1,0,1.42-.36,1.42-1.42V1.3h2.33V6.81h7.11V8.87h-7.11v11.5h7.11v2.05h-6.08C112.43,22.42,111.34,20.94,111.34,18.85Z"/>
          <path d="M126.08,0V9.35h.12a4.42,4.42,0,0,1,4.45-2.9c3.26,0,5.41,2.18,5.41,6v10h-2.42V12.83c0-2.84-1.3-4.23-3.69-4.23-1.94,0-3.87.93-3.87,3V22.42h-2.43V0Z"/>
          <path d="M138.45,14.65c0-5,2.94-8.2,7.17-8.2s6.93,3.2,6.93,7.62v1.15H141V16a4.52,4.52,0,0,0,4.79,4.75A4.73,4.73,0,0,0,150.25,18L152,19.19a6.56,6.56,0,0,1-6.26,3.6C141.3,22.79,138.45,19.58,138.45,14.65ZM141,13.19v.22h9v-.34c0-2.75-1.75-4.63-4.33-4.63A4.57,4.57,0,0,0,141,13.19Z"/>
          <path d="M171,1.3c5.14,0,7.69,3.63,7.69,10.56S176.12,22.42,171,22.42H160.32V1.3Zm5,12.2V10.23c0-4.24-1.75-6.72-5.11-6.72h-8V20.22h8C174.22,20.22,176,17.73,176,13.5Z"/>
          <path d="M190.74,19.88h-.15c-.67,1.79-2.15,2.91-4.69,2.91-3.27,0-5.36-1.82-5.36-4.75s2-4.54,6.72-4.54h3.33V12c0-2.27-1.36-3.45-3.72-3.45a4.42,4.42,0,0,0-4.18,2.3l-1.63-1.21c.78-1.63,2.78-3.14,6-3.14,3.66,0,6,2,6,5.26v8.6h4.42v2.11h-3.9A2.55,2.55,0,0,1,190.74,19.88Zm-.15-2V15.31h-3.33c-2.87,0-4.18.85-4.18,2.36v.64c0,1.6,1.25,2.45,3.24,2.45C188.8,20.76,190.59,19.49,190.59,17.89Z"/>
          <path d="M200.06,18.85v-10h-5.2V6.81h3.87c1,0,1.42-.36,1.42-1.42V1.3h2.33V6.81h7.11V8.87h-7.11v11.5h7.11v2.05h-6.08C201.15,22.42,200.06,20.94,200.06,18.85Z"/>
        </g>
        <path d="M221.61,19.88h-.15c-.67,1.79-2.15,2.91-4.69,2.91-3.27,0-5.36-1.82-5.36-4.75s2-4.54,6.72-4.54h3.33V12c0-2.27-1.37-3.45-3.73-3.45a4.4,4.4,0,0,0-4.17,2.3l-1.64-1.21c.79-1.63,2.79-3.14,6-3.14,3.66,0,6,2,6,5.26v8.6H307v2.11H224.39A2.54,2.54,0,0,1,221.61,19.88Zm-.15-2V15.31h-3.33c-2.88,0-4.18.85-4.18,2.36v.64c0,1.6,1.24,2.45,3.24,2.45C219.67,20.76,221.46,19.49,221.46,17.89Z"/>
      </g>
    </g>
    <g>
      <path d="M113.35,40.76a10.73,10.73,0,0,1-.4,1.55c0,.1-.07.1-.08,0a12.25,12.25,0,0,0-.31-1.58,3.42,3.42,0,0,1,0-.39,5.84,5.84,0,0,0-.49-1.9c0-.1,0-.1.06,0a11,11,0,0,1,1.19,1.92A.85.85,0,0,1,113.35,40.76Z"/>
      <path d="M114.43,43.47c-.22-.72-.45-1.46-.73-2.19-.06-.13-.12-.16-.14-.07a12.52,12.52,0,0,1-.52,1.48A.77.77,0,0,0,113,43c0,.54.06,1.07.08,1.58,0,.09,0,.12.12.07.38-.29.78-.59,1.19-.87A.33.33,0,0,0,114.43,43.47Z"/>
      <path d="M115.51,46.33a10.75,10.75,0,0,1-.82-2c0-.12-.13-.19-.21-.14-.45.25-.88.51-1.28.77a.31.31,0,0,0-.13.24c0,.49,0,.95.08,1.38,0,.07.1.12.2.11.58-.06,1.24-.11,2-.14C115.51,46.54,115.57,46.45,115.51,46.33Z"/>
      <path d="M113.17,38.4a8.42,8.42,0,0,0-2.44-1.74c-.15-.07-.21-.08-.13,0a3.86,3.86,0,0,1,1.17,1.21,3.49,3.49,0,0,0,.26.35,9.7,9.7,0,0,1,1.27,1.94c.07.12.13.16.14.07a7.35,7.35,0,0,0,0-1.41A.9.9,0,0,0,113.17,38.4Z"/>
      <path d="M116.07,42.18c-.64-1-1.26-1.9-2-2.76-.13-.15-.23-.21-.23-.13a7.74,7.74,0,0,1-.19,1.38,1,1,0,0,0,.07.39c.33.75.59,1.52.85,2.26,0,.14.14.2.22.15.42-.3.85-.59,1.3-.89C116.22,42.53,116.19,42.35,116.07,42.18Z"/>
      <path d="M119.37,46.23a17.89,17.89,0,0,1-2.5-2.89c-.12-.17-.3-.27-.39-.23-.53.27-1,.53-1.49.79a.29.29,0,0,0-.07.32,11,11,0,0,0,1,2.09.48.48,0,0,0,.41.2c.88,0,1.88,0,3,0C119.55,46.53,119.56,46.4,119.37,46.23Z"/>
      <path d="M112.48,36.8a7.94,7.94,0,0,0-3.89-.86c-.23,0-.32,0-.22,0a7.33,7.33,0,0,1,4.75,2.22c.14.15.25.19.23.11a4.37,4.37,0,0,0-.4-1.17A1.57,1.57,0,0,0,112.48,36.8Z"/>
      <path d="M117.83,40.84a35,35,0,0,0-3.74-3.11c-.23-.15-.39-.21-.37-.14a5.8,5.8,0,0,1,.16,1.21,1,1,0,0,0,.25.42c.76.87,1.44,1.83,2.14,2.81.12.17.29.27.38.22.46-.31.94-.61,1.44-.92C118.18,41.27,118.06,41.06,117.83,40.84Z"/>
      <path d="M124.93,46.51a48.17,48.17,0,0,1-5.45-4.18c-.26-.23-.55-.37-.66-.32q-.91.41-1.74.81c-.09,0-.07.23.07.41a18.74,18.74,0,0,0,2.76,3,1.59,1.59,0,0,0,.81.36c1.29.06,2.76.18,4.45.38C125.47,47,125.36,46.79,124.93,46.51Z"/>
    </g>
    <g>
      <path d="M80.11,42.25a4.06,4.06,0,0,0-.08-.69,2,2,0,0,0-.51-.94A2.05,2.05,0,0,0,78.43,40a10.76,10.76,0,0,0-2.18-.28c-.54,0-1.08,0-1.62,0l-.3,0c-.27,0-.55.07-.82.12a6.85,6.85,0,0,0-.81.2c-.14,0-.27.13-.42.2h0V36.38H70.87v10h1.39V43.21a1.34,1.34,0,0,1,0-.2,4.92,4.92,0,0,1,.09-.86,1.43,1.43,0,0,1,1-1.16,6.4,6.4,0,0,1,1.74-.29,12.73,12.73,0,0,1,1.38,0,4,4,0,0,1,1.28.32,1.24,1.24,0,0,1,.66.65,3.38,3.38,0,0,1,.25,1.3v3.36h1.39V44.78C80.12,43.94,80.12,43.1,80.11,42.25Z"/>
      <path d="M110.65,42.18a1.09,1.09,0,0,0,0-.18,2.92,2.92,0,0,0-.36-1.22,1.65,1.65,0,0,0-1-.72,6.17,6.17,0,0,0-1.41-.27c-.39,0-.79-.08-1.19-.09a10.42,10.42,0,0,0-1.12,0c-.45,0-.9.06-1.35.12a8.3,8.3,0,0,0-1.1.24,2.69,2.69,0,0,0-.87.37,2,2,0,0,0-.79,1.21,8.63,8.63,0,0,0-.16,1.12,5.57,5.57,0,0,0,0,1.08,3.27,3.27,0,0,0,.42,1.36,1.75,1.75,0,0,0,.73.72,4.14,4.14,0,0,0,1,.31,6.17,6.17,0,0,0,1.11.12h4.2v-.93h-4.2a3.16,3.16,0,0,1-1-.2,1.19,1.19,0,0,1-.67-.58,3.23,3.23,0,0,1-.26-1.26,5.39,5.39,0,0,1,.1-1.33,1.32,1.32,0,0,1,.71-1,4.87,4.87,0,0,1,1.79-.41c.31,0,.61,0,.91,0s.7,0,1,.05a11.36,11.36,0,0,1,1.16.24,1,1,0,0,1,.78.86,3.32,3.32,0,0,1,.06.44v4.15h1.39V42.18Z"/>
      <rect x="81.72" y="39.76" width="1.39" height="6.63"/>
      <path d="M100.16,42.26a3.07,3.07,0,0,0-.24-1.3,1.66,1.66,0,0,0-.7-.78A3.5,3.5,0,0,0,98,39.79c-.34,0-.68-.08-1-.1-.52,0-1,0-1.58,0a6.56,6.56,0,0,0-1.81.27,2.21,2.21,0,0,0-1.13.71,2.17,2.17,0,0,0-1.13-.71,6.5,6.5,0,0,0-1.81-.27c-.53,0-1,0-1.58,0-.34,0-.68.05-1,.1a3.44,3.44,0,0,0-1.25.39A1.66,1.66,0,0,0,85,41a3.07,3.07,0,0,0-.25,1.3v4.13h1.39v-3.8a2.21,2.21,0,0,1,.27-1.07,1.21,1.21,0,0,1,.87-.65,7.15,7.15,0,0,1,.91-.14c.36,0,.71,0,1.07-.06a4.15,4.15,0,0,1,1.44.24,1.55,1.55,0,0,1,.76.55,2.17,2.17,0,0,1,.32,1.27c0,.06,0,.12,0,.18v3.48h1.39V42.73a2.18,2.18,0,0,1,.33-1.27,1.5,1.5,0,0,1,.76-.55,4.09,4.09,0,0,1,1.43-.24c.36,0,.72,0,1.07.06a6.89,6.89,0,0,1,.91.14,1.22,1.22,0,0,1,.88.65,2.2,2.2,0,0,1,.26,1.07v3.8h1.39V42.8A4.86,4.86,0,0,0,100.16,42.26Z"/>
      <path d="M69.43,44.69H67.91a.54.54,0,0,1-.1.22.68.68,0,0,1-.28.23h0a2.44,2.44,0,0,1-.32.11,6.72,6.72,0,0,1-1.66.24c-.59,0-1.18,0-1.78,0a6,6,0,0,1-1-.14,1.21,1.21,0,0,1-.89-.75A5.08,5.08,0,0,1,61.65,43a3.82,3.82,0,0,1,.25-1.38,1.17,1.17,0,0,1,.89-.75,6.06,6.06,0,0,1,1-.15c.6,0,1.19-.05,1.78,0a7.22,7.22,0,0,1,1.66.23,2.44,2.44,0,0,1,.32.11h0a.87.87,0,0,1,.28.23.61.61,0,0,1,.1.23h1.52v0h0v0h0a.5.5,0,0,0,0-.12v-.06h0a.86.86,0,0,0-.18-.36h0a.21.21,0,0,0,0-.06,1.85,1.85,0,0,0-.87-.61A4.75,4.75,0,0,0,67,39.86c-.38,0-.77-.07-1.15-.09s-.84,0-1.26,0-.88,0-1.32.08A11,11,0,0,0,62,40a1.91,1.91,0,0,0-1,.53,2.28,2.28,0,0,0-.57,1,5.22,5.22,0,0,0-.17,1.52,5.15,5.15,0,0,0,.17,1.51,2.28,2.28,0,0,0,.57,1,1.91,1.91,0,0,0,1,.53c.42.09.84.17,1.26.22s.88.06,1.32.07.84,0,1.26,0,.77-.06,1.15-.1a5.11,5.11,0,0,0,1.34-.3,1.94,1.94,0,0,0,.87-.62l0,0h0A1,1,0,0,0,69.4,45h0v0h0v0a.69.69,0,0,0,0-.13h0v0h0Z"/>
    </g>
    <g>
      <path d="M0,40.14H2.39a2.83,2.83,0,0,1,3,3,3,3,0,0,1-3,3.19H0Zm1.18,5.27H2.29c1.28,0,1.87-.94,1.87-2.22A1.85,1.85,0,0,0,2.29,41.1H1.18Z"/>
      <path d="M8.65,43.8v2.57H7.5V40.14h2.64c1.33,0,2,.73,2,1.7a1.47,1.47,0,0,1-1,1.47c.37.12.83.46.83,1.57v.29a4.8,4.8,0,0,0,.09,1.2H11A4.37,4.37,0,0,1,10.91,45v-.1c0-.75-.2-1.09-1.24-1.09Zm0-.95H9.86c.8,0,1.13-.31,1.13-.89s-.36-.87-1.08-.87H8.65Z"/>
      <path d="M15.54,40.14v6.23H14.36V40.14Z"/>
      <path d="M19.5,46.37l-2.22-6.23h1.26l1,3c.3.89.55,1.69.69,2.3h0c.13-.55.41-1.38.71-2.27l1-3h1.21l-2.29,6.23Z"/>
      <path d="M29.07,43.61H26V45.4h3.33l-.14,1H24.9V40.14h4.3v1H26v1.53h3Z"/>
      <path d="M31.29,46.37V40.14h1.49c.81,1.42,2.42,4.13,2.73,4.81h0c-.06-.7-.06-1.75-.06-2.77v-2h1.08v6.23H35.13c-.72-1.26-2.46-4.3-2.79-5h0c0,.6.06,1.81.06,2.93v2.09Z"/>
      <path d="M42.1,40.14h2.62c1.44,0,2,.75,2,1.58a1.39,1.39,0,0,1-.83,1.35,1.52,1.52,0,0,1,1,1.45,1.91,1.91,0,0,1-2.14,1.85H42.1Zm2.46,2.5c.73,0,1-.31,1-.8s-.36-.78-.95-.78H43.26v1.58Zm-1.3,2.81h1.32c.75,0,1.15-.32,1.15-1s-.36-.93-1.21-.93H43.26Z"/>
      <path d="M50.32,46.37V44.14a.34.34,0,0,0,0-.19l-2.16-3.81h1.33c.51,1,1.23,2.33,1.53,3,.27-.62,1-2,1.55-3h1.24l-2.21,3.8a.29.29,0,0,0,0,.19v2.24Z"/>
    </g>
  </g>
</svg>
